<?xml version="1.0" encoding="UTF-8"?>
<svg id="Layer_2" data-name="Layer 2" xmlns="http://www.w3.org/2000/svg" viewBox="0 0 261.81 293.96">
  <defs>
    <style>
      .cls-1 {
        fill: #fff;
        stroke-width: 0px;
      }
    </style>
  </defs>
  <g id="Layer_16" data-name="Layer 16">
    <path class="cls-1" d="m260.22,144.01c-5.86,5.75-36.74,37.95-53.85-1.01-12.54,17.04-26.59,32.64-41.08,35.34-25.13,4.67-35.62-20.31-34.8-50.86,11.65,13.73,53.49,11.48,75.46-38.19,24.64-55.47-20.87-85.17-63.91-51.3-5.13,4.03-11.34,6.5-17.83,7.08-15.71,1.42-41.14-3.06-46.12-45.07,1.88,23.39,5.39,126-78.09,125.01,0,0,99.54,18.43,57.49,106.72.97-.79,65.5-53.05,109.03,62.23,0,0-18.8-153.23,95.29-85.4-2.27-1.54-37.84-26.49-1.59-64.55Zm-116.78-72.81c29.55-68.34,46.05-32.04,30.11,15.13-14.68,43.48-32.87,36.5-42.03,29.22,1.8-14.84,5.98-30.81,11.92-44.35Z"/>
  </g>
</svg>